<svg width="1024" height="768" viewBox="0 0 1024 768" fill="none" xmlns="http://www.w3.org/2000/svg">
<g clip-path="url(#clip0_1851_39)">
<path fill-rule="evenodd" clip-rule="evenodd" d="M355.414 420C356.838 429.569 360.418 437.98 363.439 446.938C364.867 451.173 367.094 455.489 369.281 459.38C370.696 461.9 372.49 467.887 375.087 464.389C375.518 466.215 374.951 467.11 375.551 468.797C376.396 471.179 380.78 474.144 382.687 475.979C384.524 477.748 386.545 479.104 388.523 480.667C388.914 480.975 389.726 480.723 390.043 481.081C390.633 481.752 390.082 482.681 390.331 482.995C393.43 486.889 398.808 489.655 402.838 492.517C408.598 496.607 414.33 500.695 419.943 504.981C424.38 508.369 428.611 511.941 433.012 515.332C435.12 516.957 436.714 518.568 438.281 520.686C440.226 523.316 440.519 523.433 439.167 526.149C436.748 531.003 432.387 534.135 429.474 538.493C426.154 543.461 424.019 549.016 419.508 553.161C417.491 548.613 414.885 555.26 418.234 554.559C416.678 559.173 413.201 563.102 410.881 567.442C408.138 572.572 405.139 577.232 401.892 582.055C401.561 580.86 401.231 579.665 400.899 578.47C397.741 579.225 400.27 581.541 400.503 582.5C400.7 583.314 401.386 583.398 400.897 585.167C400.529 586.496 399.254 587.626 398.445 588.729C396.626 591.211 394.933 593.765 393.216 596.317C391.525 598.828 390.935 600.9 389.845 603.353C388.873 605.544 387.978 605.128 386.412 606.741C384.792 608.407 383.181 611.311 381.738 613.229C377.444 618.94 373.586 625.479 370.655 631.976C367.861 638.17 362.702 642.523 360.344 649.092C359.138 652.446 358.697 655.972 357.652 659.361C356.674 662.525 355.074 665.468 354.469 668.752C353.966 671.479 354.29 674.637 354.046 677.028C353.847 678.98 353.029 681.978 353.271 684.732C353.784 690.533 356.19 695.567 359.063 700.4C345.958 704.841 331.048 706.089 317.299 705.767C310.272 705.601 302.264 705.535 295.388 707.161C291.412 708.101 288.358 709.271 284.181 708.944C280.009 708.616 275.84 708.225 271.669 707.865C272.886 705.412 276.863 702.321 279.095 700.439C280.383 699.351 282.508 699.095 283.494 698.045C284.623 696.843 284.968 693.846 285.37 692.4C288.463 681.302 290.747 670.103 292.684 658.75C296.107 638.69 297.434 618.266 298.698 598.081C298.789 596.629 299.498 594.874 299.462 593.495C299.405 591.267 298.961 590.015 299.13 587.894C299.237 586.551 300.841 584.756 300.771 583.57C300.71 582.527 298.924 583.32 298.927 581.755C298.932 579.503 302.149 576.261 302.821 574.241C303.081 573.458 302.123 572.409 302.029 571.532L302.024 571.375C302.065 571.399 302.773 568.213 302.802 568.083C303.037 567.064 303.957 566.743 303.91 565.465C303.87 564.362 302.254 562.922 303.127 561.778C303.724 560.996 305.896 562.251 306.386 561.361C307.017 560.216 304.244 556.304 304.551 554.531C305.052 551.645 307.112 548.718 307.814 545.752C308.126 544.431 307.78 542.365 308.806 541.272C310.479 539.49 311.935 541.315 314.35 540.719C311.887 538.629 311.41 536.798 312.137 533.746C312.706 531.364 313.839 528.719 316.444 531.098C316.055 527.542 316.069 526.987 318.724 524.293C320.012 522.986 321.4 520.79 322.939 519.908C323.405 519.418 323.872 518.928 324.338 518.439C324.969 519.097 325.72 519.47 326.589 519.555C334.034 519.16 337.753 517.635 344.592 522.099C347.476 523.983 350.351 525.392 352.83 527.844C355.595 530.579 357.825 533.798 360.787 536.353C364.098 539.211 367.366 541.557 370.32 544.835C372.762 547.545 375.111 550.613 378.384 552.269C378.634 548.349 376.491 544.845 374.618 541.421C374.393 541.011 372.762 539.909 372.798 540.031C372.599 539.344 373.351 538.752 373.118 538.143C375.955 540.708 378.887 544.515 382.136 546.436C387.438 549.571 385.082 543.453 384.07 540.309C381.186 531.341 375.961 522.747 369.92 515.509C359.35 502.848 341.718 488.712 324.844 496.681C308.12 504.58 299.31 517.846 294.511 535.492C288.943 555.975 286.386 575.546 285.857 596.763C285.553 608.91 284.314 620.957 283.037 633.036C281.79 644.822 281.28 657.592 278.902 669.165C277.409 666.992 276.529 665.353 275.784 662.912C275.481 661.924 275.861 660.957 275.345 659.986C275.107 659.54 273.899 659.594 273.673 659.187C271.821 655.844 269.218 651.245 268.366 647.398C267.917 645.371 268.327 644.188 267.46 642.344C266.645 640.616 266.234 642.255 265.924 640.12C265.881 639.825 267.247 639.337 266.826 637.955C265.762 634.464 265.012 637.773 264.502 637.751C263.45 637.707 265.826 630.546 265.639 629.421C265.423 628.129 264.82 628.833 264.526 627.891C264.262 627.039 263.938 625.808 263.739 624.626C263.136 621.023 261.77 619.846 261.708 615.947C261.634 611.241 259.89 608.211 259.109 603.715C258.964 602.887 259.869 601.957 259.705 601.233C259.366 599.725 258.274 598.473 257.849 596.88C256.961 593.548 258.733 590.674 258.486 587.464C258.526 587.989 257.49 585.102 257.425 584.847C257.051 583.379 257.211 581.413 256.916 579.815C256.637 578.316 255.714 576.315 256.541 574.914C257.106 573.955 258.376 574.216 259.116 573.147C256.399 572.272 256.969 573.227 255.988 570.23C255.051 567.368 254.96 564.97 258.064 566.862C257.28 564.931 255.82 562.562 255.502 560.494C255.211 558.605 255.906 556.776 255.707 554.896C255.175 549.86 253.623 546.796 256.486 541.91C252.714 539.981 254.346 533.264 253.762 529.61C253.129 525.644 251.584 521.853 254.561 519.248C250.787 516.537 252.706 507.743 252.776 503.543C252.843 499.526 252.529 495.454 252.577 490.786C252.605 488.149 251.862 486.335 251.232 483.726C250.42 480.364 251.246 477.783 250.969 474.532C250.748 471.948 249.772 469.353 249.64 466.601C249.504 463.793 249.738 460.643 249.342 457.885C249.013 455.602 248.468 453.968 248.41 451.503C248.394 450.771 248.037 449.459 248.187 448.779C248.182 448.804 249.205 446.429 249.198 447.477C249.228 443.572 247.272 439.756 248.297 434.997C249.141 431.089 249.847 431.73 253.789 431.972C256.899 432.163 260.007 432.368 263.123 432.38C267.159 432.396 280.14 429.597 283.061 432.442C285.48 434.798 284.074 445.95 284.239 449.318C284.505 454.8 279.256 456.477 277.8 462.076C275.026 472.751 279.609 486.842 292.117 487.754C303.784 488.606 314.976 479.013 313.374 467.222C312.731 462.49 310.551 457.34 306.436 454.571C302.455 451.892 293.999 453.912 291.226 450.683C289.933 449.176 290.446 443.32 290.296 441.355C290.078 438.496 288.768 432.776 290.652 431.422C292.78 429.891 299.351 429.861 301.779 429.855C305.221 429.846 308.353 429.849 311.768 429.272C319.326 427.992 326.861 428.043 334.286 426.369C341.658 424.707 348.469 422.97 355.414 420ZM445.489 420C447.024 419.962 450.323 432.67 451.192 434.912C453.569 441.039 454.543 447.219 455.865 453.662C457.223 460.277 458.439 466.999 460.198 473.517C461.519 478.414 461.223 483.157 463 488.087C462.53 491.139 462.952 496.413 459.58 497.726C456.532 498.912 454.551 496.015 453.418 493.505C450.361 486.723 451.343 477.673 450.228 470.381C448.913 461.773 448.836 453.293 447.804 444.673C446.895 437.078 443.817 427.486 445.489 420ZM312.404 245.855C315.746 249.628 320.656 248.045 325.059 247.626C323.191 251.872 320.509 256.416 320.409 261.17C320.358 263.637 321.686 265.826 321.671 268.179C321.655 270.512 319.763 272.689 318.865 274.855C314.832 284.574 313.857 297.742 313.706 308.178C313.395 329.768 319.858 352.765 333.604 369.693C336.504 373.265 339.765 376.565 343.41 379.384C345.392 380.915 354.521 384.553 354.948 386.705C355.776 390.87 346.408 390.459 343.85 390.832C338.471 391.616 333.153 392.742 327.766 393.467C306.178 396.37 284.867 398.689 263.103 397.516C260.695 397.387 256.192 398.586 253.916 397.622C251.242 396.49 252.154 394.237 252.219 391.602C252.385 384.839 251.413 378.188 250.845 371.469C250.386 366.033 251.63 366.758 255.615 363.75C259.736 360.639 263.765 354.863 265.11 349.913C268.944 353.004 266.167 354.666 266.713 358.632C267.379 363.469 270.649 362.676 272.806 359.439C276.152 354.417 275.856 346.479 272.729 341.46C269.928 336.966 259.934 330.065 254.265 332.121C246.721 334.857 254.931 344.038 258.501 346.027C257.62 348.568 252.747 350.801 250.576 352.196C247.561 354.133 243.65 355.256 240.165 356.329C230.868 359.189 221.832 359.605 212.237 358.203C203.017 356.856 192.459 353.854 186.511 346.297C183.938 343.029 181.573 338.054 184.041 333.962C186.264 330.273 191.76 330.018 194.463 326.444C195.63 324.903 196.191 322.856 197.264 321.363C199.008 318.935 198.306 319.367 201.586 319.646C206.896 320.096 212.558 320.438 217.786 319.159C221.716 318.197 225.543 316.401 229.388 315.255C233.469 314.038 237.339 311.48 240.495 308.723C247.775 302.362 254.902 295.45 261.643 288.518C268.344 281.628 272.636 272.759 278.909 265.452C286.018 257.173 292.854 246.589 303.274 242.031C309.261 239.413 309.152 242.182 312.404 245.855ZM337.718 273.379C338.731 274.439 338.086 280.518 339.053 282.457C342.767 289.909 349.263 288.263 355.984 286.697C356.563 292.669 357.011 299.395 359.421 304.96C360.498 307.445 362.199 309.579 363.068 312.176C363.618 313.822 363.396 315.91 364.018 317.44C364.69 319.094 366.393 320.368 367.389 321.999C368.591 323.968 369.222 325.806 370.805 327.53C374.269 331.299 378.973 334.494 381.623 338.991C382.711 340.836 382.902 342.204 382.869 344.353C382.858 345.124 382.316 347.953 382.558 348.524C383.441 350.617 386.618 351.157 386.969 353.86C387.168 355.379 386.341 355.197 386.06 356.462C385.722 357.985 385.964 359.03 385.407 360.726C384.522 363.418 380.62 368.484 381.025 370.803C375.284 373.963 365.187 375.966 358.754 374.523C352.177 373.048 345.602 365.58 341.357 360.688C331.393 349.204 325.591 331.064 325.047 316.041C324.771 308.417 325.786 300.758 326.146 293.147C326.348 288.859 325.433 276.781 329.066 273.777C329.878 273.106 337.006 272.634 337.718 273.379ZM284.105 287.76C275.243 288.268 267.635 302.144 269.276 310.249C270.623 316.902 272.895 311.757 274.621 308.9C276.657 305.527 280.343 301.447 284.719 302.312C289.581 303.275 290.821 309.198 292.804 312.953C296.42 319.801 297.546 312.448 298.348 308.292C297.71 300.164 294.726 287.152 284.105 287.76Z" fill="#57CC99"/>
<path fill-rule="evenodd" clip-rule="evenodd" d="M818.369 702.393C813.748 703.827 809.415 705.94 804.962 707.827C799.908 709.97 796.379 710.346 790.86 710.337C769.491 710.305 748.344 711.402 726.937 711.834C721.089 711.952 715.154 712.01 709.306 711.904C706.945 711.861 704.63 711.593 702.28 711.399C700.761 711.274 694.142 712.184 693.259 711.652C690.778 710.159 692.251 700.543 691.95 697.462C691.426 692.112 690.071 686.956 688.185 681.929C681.435 663.944 670.083 646.398 655.731 633.562C675.138 625.412 696.308 614.666 717.846 619.501C726.048 621.342 736.921 623.752 741.145 631.688C745.654 640.16 749.602 649.475 754.756 657.587C760.517 666.651 766.632 674.418 774.971 681.216C778.261 683.9 794.842 700.382 792.324 687.659C791.516 683.578 788.532 679.785 786.148 676.453C784.935 674.758 778.399 669.2 779.417 667.236C780.558 665.034 792.345 663.482 794.87 662.781C800.088 661.335 805.277 659.791 810.474 658.273C808.595 661.815 798.372 675.217 804.904 678.642C807.304 679.901 813.511 675.443 816.14 674.66C820.621 673.327 824.716 674.205 829.12 675.525C829.005 677.687 824.758 677.715 823.346 679.192C821.282 681.353 819.831 687.18 821.451 689.769C824.467 694.593 836.141 689.67 841.361 691.501C835.493 697.556 826.287 699.935 818.369 702.393ZM526.784 503.273C526.845 503.398 526.734 503.572 526.032 504.181C525.818 503.412 525.436 503.243 524.967 503.454C525.344 503.044 525.656 502.828 526.032 504.181C526.328 503.924 526.573 503.606 526.784 503.273ZM528.569 500.734C528.429 501.197 528.11 501.414 527.623 501.402C527.649 501.322 527.672 501.246 527.691 501.187C528.015 500.177 528.445 500.349 528.302 498.49C528.495 498.801 528.642 499.114 528.534 499.427C528.842 499.899 528.852 500.334 528.569 500.734ZM476.627 588.013C477.12 586.823 477.25 585.44 477.887 584.345C477.264 585.455 477.254 586.824 476.627 588.013ZM677.395 710.894C669.66 710.585 662.121 710.723 654.389 711.059C637.866 711.779 621.268 711.885 604.777 713.21C596.71 713.859 588.954 714.106 580.862 713.835C573.788 713.597 566.688 713.849 559.636 713.256C551.892 712.605 544.641 710.464 536.826 710.348C529.353 710.237 520.454 709.373 513.206 710.464C511.955 710.652 511.281 711.45 509.805 711.642C507.764 711.908 504.893 711.077 502.805 710.936C499.14 710.689 495.089 711.095 491.513 710.24C490.285 709.948 489.425 709.497 488.234 709.016C487.159 708.583 484.749 708.249 484.158 708.094C487.565 706.824 480.006 704.234 479.397 704.093C479.243 704.609 479.583 705.332 480.141 706.032C478.207 704.548 480.278 705.096 477.115 703.592C475.784 702.959 473.269 702.552 471.778 702.384C470.343 702.223 469.568 702.392 468.915 702.356C469.048 702.21 469.178 702.014 469.304 701.753C470.359 699.575 467.142 697.088 465.335 698.551C465.544 698.977 465.883 699.763 466.292 700.536C466.274 700.515 466.259 700.499 466.24 700.477C465.57 699.703 464.31 697.723 463.054 696.391C464.646 695.513 462.699 694.319 461.965 693.094C461.463 693.37 460.906 693.604 460.618 693.988C461.036 693.115 462.072 692.325 461.465 690.628C461.291 690.143 460.832 689.412 460.255 688.898C460.803 689.327 461.372 689.802 462.11 689.7C461.188 688.304 460.849 687.778 460.498 686.378C460.25 685.393 461.628 684.442 460.32 683.552C460.359 682.623 460.912 678.359 458.596 679.847C458.596 679.847 458.596 679.847 458.595 679.848C458.596 679.846 458.596 679.844 458.597 679.843C460.079 675.309 462.6 670.628 464.474 666.195C468.839 655.872 473.326 645.471 477.893 635.238C485.446 618.31 493.333 601.425 502.023 584.952C510.639 568.621 520.045 552.827 528.176 536.271C536.02 520.299 545.17 505.016 553.068 489.069C556.788 481.558 561.774 475.347 563.042 466.62C563.453 463.793 563.583 457.899 559.305 458.96C556.524 459.649 552.631 466.611 550.836 468.875C549.229 466.668 540.157 453.695 537.725 461.424C535.638 468.051 548.702 470.937 543.49 477.612C542.973 478.274 540.832 478.942 540.129 479.554C538.76 480.745 537.509 482.846 536.451 484.282C534.043 487.557 532.05 491.037 529.823 494.424C529.404 495.062 527.873 496.503 527.755 497.249C527.692 497.645 528.025 498.052 528.284 498.464C526.472 500.067 524.187 501.484 523.763 504.081C523.888 504.136 524.005 504.145 524.115 504.124C522.432 505.885 520.3 510.154 519.995 510.599C517.726 513.9 515.499 517.353 513.256 520.835C512.045 522.718 509.925 524.932 509.229 527.047C508.988 527.778 509.693 529.089 509.036 529.774C507.306 531.574 505.616 531.191 504.323 534.811C503.814 536.236 503.769 538.229 502.95 539.452C501.639 541.413 499.762 542.337 498.536 544.447C496.212 548.451 493.425 552.847 491.96 556.887C491.954 556.904 491.953 556.919 491.947 556.935C491.897 556.619 491.828 556.276 491.746 555.902C490.916 557.392 490.087 558.884 489.257 560.376C490.693 560.096 491.461 559.705 491.811 559.067C491.77 559.281 491.702 559.502 491.571 559.734C490.837 560.072 490.065 560.285 489.257 560.376C488.701 561.294 488.18 562.231 487.694 563.188C487.456 563.672 486.656 566.622 486.319 568.856C486.196 567.989 486.071 567.211 486.058 567.108C485.005 569.134 483.952 571.16 482.9 573.185C484.81 571.717 484.703 571.468 486.521 571.432C484.228 571.478 480.76 574.697 480.441 577.789C480.389 578.292 480.697 578.842 480.97 579.361C480.907 579.352 480.844 579.344 480.772 579.338C478.371 579.134 479.073 579.618 478.163 581.618C478.511 581.479 480.532 580.691 481.291 580.076C481.374 580.339 481.387 580.58 481.259 580.785C480.664 581.73 475.803 581.119 478.925 583.218C476.331 581.475 475.035 587.198 475.918 589.165C475.219 590.173 474.388 591.102 473.605 592.035C471.683 594.328 470.62 596.067 469.36 598.859C467.216 603.613 464.657 608.332 462.313 612.995C461.423 614.767 460.386 616.278 459.294 617.924C457.358 620.845 457.698 620.116 459.226 623.298C458.653 623.112 457.805 623.563 456.984 624.218C457.43 623.461 457.999 622.899 459.226 623.298C457.288 619.261 455.624 624.181 454.732 626.494C454.772 626.494 454.805 626.483 454.842 626.481C454.72 626.661 454.628 626.821 454.573 626.948C453.662 628.825 452.588 629.975 453.365 631.943C453.588 630.848 454.477 630.001 454.854 629.06C454.322 631.355 451.818 634.105 451.063 635.625C450.435 636.888 450.346 638.213 449.574 639.587C448.849 640.877 448.196 641.746 447.639 643.222C444.947 650.358 443.637 658.307 441.938 665.802C439.93 674.659 439.104 684.071 438.674 693.136C438.549 695.771 438.48 698.1 439.429 700.602C439.567 700.965 441.044 702.895 441.006 703.601C440.802 707.289 433.876 706.522 431.212 706.416C426.976 706.246 424.094 706.93 420.026 707.519C416.273 708.061 412.59 707.764 408.779 708.685C402.449 710.214 393.024 712.637 386.904 709.277C383.946 707.653 380.219 702.944 378.072 700.301C375.429 697.049 374.54 693.737 374.067 689.594C373.259 682.506 373.203 674.675 375.667 667.902C387.117 636.428 406.758 607.817 423.697 579.174C439.591 552.296 457.41 526.82 473.338 500.014C481.757 485.844 491.887 471.825 501.901 458.729C512.137 445.344 519.442 430.78 526.659 415.629C534.138 419.596 542.056 423.675 550.421 425.468C555.177 426.487 559.899 426.178 564.695 426.507C568.229 426.749 571.186 427.584 574.785 427.676C590.57 428.077 608.808 426.187 623.896 421.525C627.516 420.406 630.752 419.246 634.146 417.634C638.479 415.577 639.649 414.704 639.896 419.486C640.371 428.743 641.883 437.742 642.594 446.945C643.288 455.916 645.094 464.762 646.692 473.625C647.501 478.114 648.373 482.599 649.037 487.111C649.541 490.535 651.062 495.297 650.458 498.72C649.792 502.498 646.212 506.332 644.163 509.556C642.084 512.827 639.994 516.091 637.92 519.365C634.032 525.507 630.161 531.334 625.569 536.968C617.057 547.414 609.809 558.337 601.737 569.124C593.166 580.578 586.041 592.95 577.63 604.521C573.187 610.634 568.643 616.399 565.731 623.283C563.315 628.993 558.453 634.246 555.481 639.896C551.578 647.316 546.612 654.112 542.736 661.569C540.029 666.777 534.803 672.074 534.254 678.127C533.335 688.282 542.991 678.134 545.225 675.303C548.222 671.505 551.509 664.859 556.013 662.8C559.229 661.33 563.927 661.49 567.418 660.339C571.077 659.133 574.667 657.881 578.362 656.779C585.558 654.628 592.501 651.593 599.496 648.863C606.738 646.037 613.977 643.185 621.082 640.042C624.372 638.588 627.143 637.842 630.657 637.209C632.169 636.936 637.579 634.38 638.77 634.597C640.771 634.961 643.529 640.842 645.046 642.354C647.384 644.686 650.014 646.592 652.199 649.1C656.501 654.042 661.06 659.307 664.791 664.676C673.127 676.672 680.923 689.779 683.889 704.229C685.219 710.715 683.666 711.145 677.395 710.894ZM460.589 695.211C460.538 695.101 460.507 694.998 460.486 694.897C460.512 694.998 460.536 695.097 460.589 695.211C461.577 694.625 461.838 694.936 461.939 695.415C461.442 695.096 460.979 694.98 460.589 695.211ZM458.29 688.514C458.25 688.333 458.231 688.166 458.225 688.007C458.24 688.175 458.252 688.343 458.29 688.514C458.831 688.152 459.281 688.255 459.715 688.514C459.253 688.264 458.756 688.201 458.29 688.514ZM459.282 684.13C459.586 684.108 459.931 683.942 460.32 683.552C460.001 683.873 459.7 684.21 459.427 684.561C459.431 684.518 459.438 684.477 459.441 684.432C459.448 684.348 459.379 684.244 459.282 684.13ZM360.991 647.411C358.744 652.709 357.808 658.506 355.899 663.932C354.439 668.083 353.856 672.183 353.474 676.524C354.806 677.506 354.776 678.37 353.384 679.118C353.285 680.062 353.251 681.009 353.283 681.958C352.922 684.722 353.455 687.127 354.186 689.776C355.345 693.977 356.814 696.995 358.969 700.626C345.888 705.064 330.986 706.313 317.262 705.992C309.844 705.818 301.524 705.802 294.296 707.631C286.513 709.602 279.688 708.779 271.693 708.09C272.861 705.737 277.325 701.811 279.585 700.176C280.736 699.345 282.629 699.203 283.502 698.272C284.747 696.944 284.893 694.367 285.377 692.627C288.461 681.528 290.743 670.336 292.681 658.984C296.094 638.972 297.68 618.487 298.686 598.325C298.772 596.619 299.653 594.705 299.61 593.09C299.554 590.968 298.947 590.273 299.118 588.14C299.228 586.749 300.896 584.861 300.775 583.624C300.699 582.849 298.801 583.518 298.915 582.002C299.092 579.665 302.117 576.586 302.803 574.489C303.108 573.556 301.97 572.627 302.006 571.608C301.996 571.899 302.757 568.456 302.785 568.332C303.015 567.343 303.941 566.927 303.891 565.715C303.845 564.613 302.24 563.17 303.109 562.028C303.989 560.873 305.81 562.621 306.364 561.611C306.994 560.466 304.224 556.556 304.532 554.783C305.07 551.679 307.182 548.341 308.008 545.19C308.318 544.008 307.82 542.548 308.78 541.525C310.453 539.744 311.905 541.571 314.317 540.973C311.924 538.94 311.397 536.98 312.107 534.001C312.683 531.582 313.794 528.964 316.408 531.354C316.064 528.204 315.695 527.884 317.958 525.253C319.91 522.981 322.442 520.26 324.779 518.52C328.273 515.917 333.851 514.579 337.995 514.273C342.519 513.94 348.079 516.364 351.502 519.782C355.666 523.94 361.051 526.971 365.775 530.946C370.819 535.19 375.15 540.231 379.996 544.73C380.991 545.653 382.822 548.236 384.359 547.792C386.866 547.067 384.842 543.326 384.292 541.661C380.385 529.822 373.362 517.894 363.702 509.817C358.72 505.65 353.764 500.38 347.973 497.346C343.294 494.894 339.64 495.28 334.667 495.105C330.415 494.955 329.541 494.704 325.75 496.493C323.063 497.761 320.402 498.999 317.866 500.55C313.81 503.028 309.628 506.041 306.631 509.786C298.652 519.76 295.537 532.442 292.402 544.596C288.951 557.964 286.576 571.026 286.158 584.897C285.733 599.011 285.079 612.917 283.687 626.974C282.963 634.284 282.13 641.579 281.186 648.864C280.316 655.581 280.27 662.8 278.917 669.396C277.212 666.912 276.683 664.994 275.742 662.318C275.107 660.516 274.463 660.578 273.544 659.249C271.596 656.438 269.162 651.105 268.396 647.634C267.926 645.512 268.36 644.448 267.49 642.581C267.221 642.004 265.76 642.456 265.526 641.542C265.358 640.887 266.273 640.38 266.232 640.157C266.137 639.64 267.558 639.066 266.33 637.44C264.586 635.132 265.478 638.028 264.537 637.988C263.752 637.955 266.107 629.987 265.83 628.831C265.732 628.422 264.397 628.368 264.29 627.988C263.965 626.839 264.039 625.175 263.723 623.928C262.95 620.884 261.803 619.664 261.746 616.188C261.672 611.594 259.97 608.342 259.151 603.959C258.993 603.116 259.92 602.204 259.746 601.477C259.395 599.993 258.297 598.694 257.893 597.124C257.114 594.101 258.153 589.836 257.941 587.378C257.754 585.227 257.151 581.735 256.754 579.063C256.108 574.713 257.269 576.133 259.158 573.396C256.538 572.551 256.872 573.294 256.034 570.479C255.069 567.228 255.158 565.311 258.107 567.111C257.323 565.18 255.868 562.814 255.548 560.744C255.251 558.822 255.954 557.056 255.754 555.147C255.209 549.981 253.597 547.177 256.531 542.164C252.759 540.232 254.402 533.578 253.811 529.866C253.174 525.859 251.628 522.117 254.609 519.507C251.543 517.301 252.757 510.973 252.77 507.594C252.776 506.061 253.295 503.363 253.163 502.002C253.072 501.045 252.42 500.402 252.232 499.288C251.535 495.157 253.073 491.067 252.148 486.958C251.104 482.327 250.983 478.378 250.625 473.84C250.279 469.442 249.598 464.87 249.306 460.362C249.09 457.016 247.785 453.396 248.386 449.93C248.433 449.657 249.23 447.191 249.252 447.748C249.215 446.857 248.567 445.754 248.537 445.223C248.323 441.211 248.247 437.94 248.419 433.868C248.41 433.868 248.401 433.866 248.393 433.867C248.89 433.565 249.158 432.937 249.179 431.959C252.932 431.596 257.037 432.513 260.83 432.614C264.917 432.722 268.992 432.518 273.074 432.33C275.701 432.208 281.361 430.964 283.361 433.157C284.81 434.746 283.899 442.922 283.995 445.048C284.11 447.561 285.381 451.504 283.912 453.703C283 455.067 280.939 455.612 279.876 457.109C279.229 458.02 278.704 459.548 278.36 460.538C277.322 463.52 276.909 466.739 277.068 469.887C277.817 484.628 289.631 491.397 302.895 485.457C314.45 480.283 317.591 464.633 307.663 455.864C305.326 453.799 302.835 453.275 299.852 452.765C297.957 452.441 292.783 452.64 291.544 451.287C290.315 449.945 290.614 445.757 290.478 444.014C290.259 441.217 289.135 437.061 289.744 434.362C288.745 432.113 289.412 431.162 291.746 431.507C292.485 431.359 293.225 431.21 293.963 431.061C295.825 430.724 297.654 430.317 299.545 430.187C302.916 429.956 306.202 430.356 309.574 429.905C312.882 429.462 316.125 428.635 319.439 428.207C322.96 427.752 326.419 428.258 329.904 427.66C337.137 426.422 344.909 424.756 351.677 421.913C353.489 421.152 356.561 418.959 358.572 419.321C360.981 419.755 360.337 421.287 361.031 423.578C364.878 436.284 372.873 448.837 381.334 458.939C389.321 468.474 399.85 476.164 409.374 484.161C415.147 489.01 420.691 494.107 426.052 499.406C429.942 503.253 434.116 509.267 439.141 511.486C440.286 511.528 444.702 511.022 445.509 511.85C446.441 512.803 446.384 513.336 446.013 513.931C447.08 511.119 442.002 511.593 439.141 511.486C439.465 512.031 442.678 518.474 443.472 514.89C443.934 515.165 444.395 515.44 444.856 515.715C442.573 520.759 439.617 525.815 436.405 530.329C434.065 533.621 431.041 536.002 428.94 539.413C426.289 543.718 424.08 548.186 420.721 552.021C414.023 559.672 410.295 569.959 404.454 578.448C401.648 582.528 400.183 586.32 397.262 590.381C394.978 593.559 391.277 597.579 389.946 601.235C389.415 602.697 389.985 603.965 389.011 605.319C388.396 606.175 386.575 607.104 385.715 607.991C382.303 611.516 379.642 616.545 376.965 620.692C374.114 625.107 372.128 629.689 369.713 634.289C367.236 639.009 363.136 642.353 360.991 647.411ZM272.407 660.949C272.59 661.445 271.485 662.288 268.547 661.977C271.457 662.285 272.57 661.449 272.407 660.949ZM246.859 712.239C244.467 711.403 238.243 709.924 234.19 708.176C235.997 708.682 237.879 709.099 238.603 709.352C241.354 710.314 244.106 711.277 246.859 712.239C250.757 698.186 265.394 692.831 277.918 687.642C271.884 687.389 269.729 682.151 266.082 678.408C269.722 682.142 271.912 687.39 277.918 687.642C265.396 692.83 250.757 698.188 246.859 712.239ZM233.169 698.092C233.032 698.32 232.896 698.556 232.758 698.812C232.385 699.511 230.979 702.633 230.389 704.683C230.27 702.576 231.521 700.111 233.169 698.092ZM246.948 431.275C247.172 431.186 247.351 431.172 247.515 431.184C246.86 431.214 246.682 431.991 246.654 433.07C246.085 432.466 245.95 431.674 246.948 431.275ZM292.406 463.747C296.671 465.865 300.81 467.098 304.879 469.66C299.887 473.541 283.95 479.808 284.426 467.815C284.482 466.418 285.298 462.663 286.574 461.832C288.514 460.568 290.714 462.907 292.406 463.747ZM243.579 407.904C262.361 414.458 284.242 412.838 303.332 409.641C323.841 406.207 344.319 404.185 364.187 397.756C364.207 400.523 365.407 403.42 363.214 405.701C361.496 407.489 357.77 407.827 355.499 408.58C349.559 410.55 344.458 413.419 338.249 414.596C331.294 415.915 324.347 415.888 317.333 416.668C314.792 416.951 312.404 417.406 310.018 417.864C306.713 417.914 304.125 418.362 300.826 419.278C289.026 419.334 277.306 419.684 265.555 418.278C259.587 417.563 253.684 416.688 247.7 416.079C242.096 415.508 243.348 413.093 243.579 407.904ZM236.394 357.489C225.333 360.544 213.926 359.63 203.043 356.132C195.174 353.604 184.734 349.899 183.08 340.322C181.987 334.004 185.773 332.858 190.227 330.236C192.357 328.981 193.394 328.033 194.827 325.907C195.677 324.644 196.442 321.476 197.396 320.612C199.722 318.507 207.064 320.355 210.703 320.192C216.127 319.95 219.804 318.127 224.794 316.518C233.608 313.675 239.185 310.228 246.027 303.724C252.683 297.398 260.498 290.963 265.879 283.507C271.905 275.159 277.673 267.035 284.238 259.073C289.102 253.173 297.928 241.363 306.656 241.417C311.038 241.445 310.389 245.577 313.869 247.677C317.046 249.594 321.202 248.26 324.693 247.928C322.392 253.159 319.199 258.54 320.329 264.46C320.962 267.775 321.299 268.92 320.004 272.057C318.82 274.923 317.541 277.463 316.808 280.532C313.953 292.492 312.602 305.954 313.8 318.184C315.872 339.355 323.126 361.214 338.995 376.16C342.613 379.567 346.592 382.291 351.023 384.533C355.442 386.769 355.808 389.098 350.333 390.097C339.669 392.042 328.844 393.371 318.104 394.815C307.377 396.257 296.461 397.764 285.644 397.985C280.294 398.095 274.975 398.762 269.626 398.382C266.962 398.192 264.314 397.716 261.643 397.642C259.31 397.578 255.828 398.743 253.657 397.824C250.26 396.386 251.949 386.441 251.7 382.988C251.413 379.025 248.913 371.593 250.398 367.847C251.441 365.217 255.271 364.114 257.256 362.067C260.512 358.708 263.592 354.726 264.835 350.147C268.959 353.475 265.411 355.61 266.663 359.668C268.029 364.096 270.547 362.704 272.519 359.666C275.811 354.594 275.59 346.756 272.442 341.699C270.62 338.775 267.66 336.577 264.624 335.013C262.166 333.748 256.727 331.267 254.006 332.366C246.621 335.351 254.481 344.17 258.235 346.264C257.333 348.869 250.936 352.628 248.498 353.741C244.875 355.394 240.283 356.415 236.394 357.489ZM337.756 276.715C337.853 278.134 338.004 279.49 338.472 280.848C339.428 283.616 341.339 286.015 343.972 287.385C349.08 290.045 359.439 286.215 363.93 283.078C363.93 292.588 365.635 300.153 368.363 309.175C371.002 317.904 376.405 325.008 381.001 332.758C383.384 336.777 385.572 340.926 388.937 344.226C392.357 347.579 392.927 348.865 392.614 353.81C392.101 361.956 388.222 367.511 380.89 370.884C375.081 374.104 363.085 376.72 356.756 374.03C350.103 371.2 343.623 363.876 339.314 358.238C329.526 345.43 324.561 326.139 325.156 310.215C325.466 301.921 325.905 293.434 326.699 285.17C327.276 279.149 327.066 270.493 335.824 273.206C338.653 274.082 337.528 273.429 337.756 276.715ZM371.361 387.932C372.206 386.212 379.638 384.483 380.932 385.492C382.895 387.022 382.977 395.948 383.666 398.488C384.76 402.52 386.198 406.505 387.931 410.308C391.569 418.284 396.788 426.522 402.979 432.735C409.396 439.17 416.77 443.629 424.561 448.241C426.787 449.56 428.942 451.15 431.229 452.347C432.189 452.849 433.967 453.084 434.723 453.839C436.593 455.709 435.728 459.545 435.707 461.979C435.617 471.731 435.649 481.166 436.942 490.785C429.308 484.877 422.411 477.377 415.614 470.488C408.488 463.264 399.312 458.495 392.554 450.845C386.406 443.886 381.567 435.774 377.051 427.724C375.072 424.197 371.303 419.701 371.168 415.578C371.021 411.133 373.048 406.427 373.071 401.823C373.087 398.566 370.107 390.49 371.361 387.932ZM463.03 487.479C462.566 490.424 462.936 496.736 458.84 497.37C456.02 497.807 454.285 495.131 453.251 492.89C450.13 486.114 451.162 477.077 449.996 469.798C448.619 461.205 448.587 452.732 447.522 444.126C446.584 436.538 443.453 426.966 445.16 419.488C446.707 419.45 450.885 434.082 451.787 436.402C453.644 441.179 455.781 445.199 457.387 450.152C459.514 456.711 461.359 462.976 462.339 469.84C463.028 474.665 465.613 483.233 463.03 487.479ZM485.689 455.127C481.866 461.061 477.738 467.245 472.351 472.195C472.351 469.427 470.281 460.427 471.685 458.287C473.356 455.738 482.841 455.621 485.689 455.127ZM337.405 221.419C340.653 219.945 344.277 219.481 347.552 217.957C350.684 216.501 353.01 215.622 356.486 215.336C368.566 214.345 380.866 217.437 392.043 220.819C398.195 222.68 403.048 226.758 408.244 230.291C413.619 233.945 416.566 237.127 418.907 243.31C423.942 256.611 427.041 269.187 429.044 283.213C431.076 297.443 427.776 311.827 427.982 326.087C428.184 340.155 429.188 354.802 433.658 368.197C437.113 378.554 443.237 395.226 456.143 396.259C468.396 397.239 478.761 384.606 483.825 375.123C497.217 350.05 502.248 321.389 502.975 293.249C504.865 283.832 505.947 273.679 509.224 264.648C512.868 270.347 515.839 276.463 519.19 282.337C522.867 288.784 522.63 294.044 522.312 301.37C522.065 307.066 520.056 312.509 519.324 318.181C518.481 324.729 516.931 331.114 516.559 337.727C516.122 345.526 516.557 353.406 515.899 361.185C515.348 367.727 513.904 374.297 512.856 380.779C511.838 387.077 511.712 393.278 511.862 399.556C512.008 405.633 514.108 411.535 519.257 414.787C511.604 424.231 502.064 438.138 489.244 440.376C484.946 441.126 480.931 441.711 476.579 442.029C473.041 442.287 468.905 444.273 465.854 442.067C460.6 438.269 459.565 429.805 457.579 424.27C456.206 420.441 442.59 389.083 435.423 397.967C434.146 399.55 434.448 405.359 434.253 407.588C433.971 410.802 434.101 414.07 433.998 417.295C433.867 421.4 433.503 425.563 433.788 429.667C433.962 432.142 435.448 434.814 432.645 435.41C430.051 435.962 424.581 430.808 422.693 429.473C420.16 427.682 417.429 426.338 414.862 424.612C409.586 421.066 405.401 416.6 401.646 411.539C397.867 406.446 394.502 400.731 391.944 394.916C390.645 391.965 389.584 388.941 388.5 385.91C388.524 385.978 386.89 382.156 386.98 381.889C387.268 381.034 390.723 379.615 391.575 378.942C401.324 371.248 403.276 352.116 400.684 340.925C399.116 334.154 393.928 328.205 390.242 322.441C386.683 316.872 382.917 311.418 379.963 305.491C376.707 298.963 374.191 292.108 371.27 285.432C369.861 282.21 368.17 280.552 370.275 277.601C371.565 275.792 374.235 275.051 375.384 273.071C376.541 271.079 376.661 267.235 374.579 265.811C372.302 264.252 368.993 266.429 366.907 267.278C364.123 268.41 361.342 268.959 358.501 269.829C355.276 270.819 352.372 273.006 348.948 273.006C350.789 266.665 358.745 267.266 361.326 261.37C363.089 257.34 362.859 249.841 357.361 249.176C354.24 248.799 351.777 251.181 349.457 252.779C346.401 254.881 344.095 255.273 340.517 255.932C339.199 256.175 337.059 257.41 335.809 256.99C333.781 256.31 334.952 256.73 336.014 255.063C337.592 252.584 341.326 250.164 343.583 248.355C348.657 244.288 355.69 241.356 360.086 236.627C362.992 233.5 364.419 222.986 358.899 221.309C356.685 220.635 353.083 222.831 350.914 223.502C347.248 224.637 343.513 225.54 339.896 226.834C333.471 229.132 327.302 231.862 320.783 233.924C324.497 228.637 331.55 224.078 337.405 221.419ZM554.674 219.87C554.674 223.502 556.06 230.409 554.496 233.712C553.085 236.686 544.519 238.344 541.494 239.48C531.698 243.16 521.982 247.258 511.968 250.305C522.288 235.02 537.625 226.146 554.674 219.87ZM553.23 170.514C550.691 174.16 546.279 179.103 541.115 177.38C535.55 175.523 531.191 167.001 534.034 161.593C536.463 156.974 543.395 154.075 547.676 157.716C548.609 158.51 549.219 160.541 550.113 161.162C550.687 161.56 551.596 160.495 552.296 160.921C554.367 162.178 555.163 165.247 558.15 164.99C559.532 164.872 563.962 161.261 564.868 160.338C567.294 157.867 566.448 155.335 566.832 152.088C567.36 147.614 570.447 146.928 573.999 144.62C577.38 142.421 580.099 139.143 583.444 137.026C587.437 134.497 585.149 137.703 588.797 138.02C589.455 138.078 590.924 135.891 592.067 135.927C593.547 135.975 594.19 136.96 595.035 138.035C596.873 140.37 595.521 141.103 598.724 141.647C601.037 142.04 602.468 140.36 604.445 140.393C606.062 138.562 608.457 134.738 611.348 135.868C613.305 136.632 614.006 140.732 614.425 142.444C616.015 148.934 615.895 156.562 615.954 163.218C612.235 160.608 611.752 158.855 610.591 154.647C609.836 151.913 608.012 147.895 606.024 152.002C605.459 153.168 605.943 154.955 605.57 156.236C605.137 157.721 604.099 158.453 603.938 160.073C603.547 164.004 606.767 165.351 609.544 167.265C606.952 170.059 599.494 167.95 601.483 173.916C603.585 180.219 611.664 176.729 615.694 175.147C619.129 188.169 603.867 194.443 594.566 198.004C589.105 200.095 586.969 201.26 586.218 207.636C585.574 213.101 586.31 218.697 588.315 223.802C589.118 225.848 589.887 228.644 590.982 230.538C591.911 232.142 593.762 232.254 594.385 233.149C596.683 236.45 595.029 243.613 594.76 247.575C594.025 258.408 590.65 268.274 589.199 278.846C588.455 284.253 586.228 289.315 585.272 294.659C584.396 299.562 584.05 304.191 579.919 307.697C571.616 314.742 565.194 304.338 562.318 297.499C558.22 287.758 557.811 274.956 558.487 264.569C559.222 253.277 564.388 242.429 564.661 231.222C564.953 219.236 563.142 207.856 560.144 196.268C558.834 191.203 556.925 186.669 555.308 181.772C553.985 177.768 556.174 174.152 553.23 170.514ZM574.813 51.9389C574.813 51.9479 574.813 51.9561 574.815 51.9652C574.763 51.9062 574.71 51.85 574.653 51.7811C574.713 51.8527 574.764 51.9017 574.813 51.9389ZM575.061 50.8162C574.937 49.9701 574.665 48.9054 574.48 48.4266C574.93 48.7032 575.44 48.9354 575.457 49.2255C575.506 50.058 575.267 50.4498 575.061 50.8162ZM587.386 52.9536C587.3 53.0026 587.217 53.0561 587.129 53.1033C586.923 53.1033 586.752 53.0597 586.598 52.9917C586.657 53.0044 586.722 53.0144 586.795 53.0198C586.996 53.0343 587.193 53.0044 587.386 52.9536ZM593.83 50.8307C592.675 50.8216 591.46 50.7137 590.111 51.2986C590.326 51.1698 590.539 51.0547 590.756 50.9776C591.36 50.7636 592.636 50.7872 593.83 50.8307ZM528.479 367.577C528.727 362.155 528.723 360.528 532.984 357.032C536.536 354.117 539.972 351.058 543.56 348.187C551.507 341.828 559.997 335.096 569.031 330.347C574.093 327.688 587.905 322.327 584.415 332.828C581.12 342.737 574.764 351.539 569.292 360.343C563.714 369.317 558.133 378.298 552.339 387.134C549.817 390.977 547.158 394.747 544.746 398.658C542.372 402.509 542.128 405.105 537.261 403.511C533.724 402.352 529.728 400.94 526.391 399.433C523.461 398.109 523.636 397.3 523.555 393.856C525.37 384.954 528.058 376.79 528.479 367.577ZM551.152 259.082C549.921 264.043 541.085 264.633 536.319 265.595C535.5 265.76 531.348 267.103 530.573 266.643C529.044 265.733 529.796 263.104 529.145 261.831C525.576 254.862 525.523 263.771 524.507 265.869C521.725 271.617 517.463 260.11 515.9 257.292C514.698 255.124 513.409 254.021 514.654 252.201C515.69 250.686 521.458 249.645 523.229 248.992C529.688 246.606 536.13 244.176 542.571 241.744C545.344 240.696 553.884 235.213 553.79 240.483C552.869 246.548 552.626 253.149 551.152 259.082ZM546.323 318.314C543.606 319.159 536.225 322.545 533.477 320.948C531.156 319.6 532.759 314.875 533.02 312.415C533.512 307.779 533.441 302.735 533.177 298.085C532.789 291.217 532.218 290.674 538.995 288.827C541.614 288.112 549.609 284.245 551.555 286.426C552.463 287.444 552.079 290.682 552.279 291.917C552.712 294.587 553.457 297.198 554.432 299.72C556.119 304.079 558.58 307.993 561.156 311.869C556.537 314.711 551.488 316.708 546.323 318.314ZM530.979 269.747C532.153 268.06 537.993 267.82 539.924 267.412C543.336 266.69 546.75 265.976 550.163 265.255C550.347 269.412 552.696 280.269 549.707 283.268C548.025 284.956 542.401 285.39 540.021 285.976C537.427 286.614 534.828 287.241 532.231 287.868C531.936 283.861 531.691 279.852 531.264 275.856C531.108 274.387 530.026 271.119 530.979 269.747ZM531.653 324.629C533.449 322.562 538.308 322.622 541.009 321.991C545.311 320.984 549.39 319.61 553.462 317.908C555.741 316.956 560.23 313.696 562.75 314.522C563.456 314.753 564.933 317.66 565.469 318.206C566.388 319.14 567.574 319.773 568.638 320.511C571.571 322.543 573.351 323.175 576.81 323.863C558.72 331.281 544.186 344.479 529.224 356.654C528.162 355.764 528.751 347.805 528.868 345.979C529.085 342.59 529.23 339.158 529.484 335.758C529.692 332.964 529.746 326.824 531.653 324.629ZM586.587 396.798C586.041 399.885 585.959 404.125 584.635 406.977C583.422 409.589 583.57 409.407 580.343 409.485C576.266 409.584 571.589 410.267 567.642 409.026C571.167 401.241 574.1 392.781 578.923 385.678C580.438 383.448 583.364 377.738 586.533 378.078C589.713 378.42 589.014 381.609 588.762 383.916C588.292 388.224 587.342 392.531 586.587 396.798ZM602.468 275.36C604.917 258.566 604.71 242.147 604.71 225.235C608.617 225.751 612.921 225.426 616.688 226.531C615.472 230.409 611.965 233.907 615.436 237.589C618.961 241.329 627.179 242.968 631.944 244.345C637.525 245.958 643.214 247.93 648.949 248.888C651.527 249.318 654.334 249.736 656.934 249.236C661.052 248.446 661.415 247.353 664.121 251.594C664.135 251.617 664.159 251.651 664.173 251.676C663.391 251.227 660.912 251.497 661.572 251.516C661.669 251.858 661.814 252.198 661.899 252.515C661.168 251.914 659.553 251.408 659.329 251.368C656.637 250.895 653.221 252.103 650.628 252.701C644.814 254.045 639.043 255.508 633.411 257.497C628.671 259.171 623.977 261.045 619.455 263.245C615.965 264.942 607.904 267.932 606.802 272.091C604.691 280.066 625.758 286.125 630.896 288.825C635.748 291.374 634.215 295.155 634.271 300.22C634.33 305.721 634.828 311.17 634.447 316.659C634.152 320.912 633.826 320.253 629.583 320.177C626.406 320.12 623.228 319.992 620.054 320.181C615.575 320.447 610.977 321.068 606.773 322.696C600.485 325.132 588.408 336.729 600.443 340.263C605.398 341.718 611.788 341.186 616.867 340.835C621.272 340.531 628.174 338.525 632.424 340.04C634.64 339.412 635.44 340.218 634.823 342.456C634.925 343.991 635.027 345.525 635.129 347.059C635.334 350.147 635.54 353.234 635.745 356.322C636.165 362.64 636.585 368.959 637.004 375.277C633.311 370.043 628.231 359.718 620.362 360.898C613.608 361.91 609.614 372.383 607.44 377.788C605.672 382.179 604.53 386.782 603.335 391.353C602.186 395.748 601.767 401.962 599.666 405.945C597.598 409.868 594.722 408.551 590.487 408.955C585.192 409.459 587.327 406.495 588.168 401.995C589.45 395.14 593.987 383.314 589.613 376.925C584.027 368.77 576.136 383.881 573.991 387.962C571.984 391.777 570.274 395.731 568.738 399.756C567.746 402.355 566.944 407.965 564.385 409.386C561.25 411.129 556.28 408.343 553.401 407.432C550.02 406.362 546.324 405.915 542.852 405.215C552.738 389.738 563.02 374.494 572.612 358.835C577.407 351.006 583.456 342.787 586.089 333.93C586.589 332.253 587.202 330.65 586.998 328.866C586.822 327.343 584.533 324.949 584.678 323.892C584.893 322.326 588.038 321.019 589.508 319.373C594.616 313.653 595.9 306.846 597.486 299.575C599.212 291.662 601.304 283.354 602.468 275.36ZM621.77 227.363C629.301 225.741 637.856 230.067 644.153 233.56C648.308 235.864 659.395 240.681 659.822 246.324C659.706 244.794 649.51 245.749 647.495 245.798C638.881 243.933 629.693 241.418 621.656 237.701C618.729 236.347 615.291 235.021 616.357 231.546C617.057 229.263 619.636 227.823 621.77 227.363ZM613.036 338.386C608.275 338.112 590.993 338.3 599.691 329.671C605.136 324.267 615.163 323.094 622.405 323.065C625 323.055 627.558 323.259 630.135 323.523C630.842 323.608 631.55 323.691 632.256 323.775C634.416 323.346 635.09 324.24 634.279 326.456C634.666 327.753 635.286 335.444 634.147 336.526C632.636 337.96 627.824 337.327 626.05 337.466C621.697 337.806 617.404 338.412 613.036 338.386ZM638.312 403.757C625.788 405.623 613.286 408.002 600.588 408.201C602.484 398.945 604.691 389.709 608.142 380.892C610.348 375.258 614.353 363.092 622.071 363.691C628.232 364.169 635.421 374.725 637.139 380.117C639.378 387.147 638.312 396.446 638.312 403.757ZM670.473 263.06C670.223 264.343 664.603 266.65 663.4 267.348C654.731 272.386 647.008 279.854 641.819 288.341C641.242 285.065 641.334 278.853 638.589 276.526C633.757 272.43 634.749 281.607 634.172 284.41C633.63 287.039 634.303 286.613 632.036 286.847C630.025 287.054 624.894 283.288 623.038 282.339C617.909 279.716 612.994 276.861 608.067 273.883C612.148 267.14 624.185 264.044 631.04 261.347C640.891 257.471 650.601 255.487 661.025 253.882C662.769 254.789 662.995 252.749 664.298 252.292C664.37 252.186 664.395 252.097 664.398 252.015C665.929 254.29 670.845 261.15 670.473 263.06ZM683.226 353.931C688.078 376.223 689.286 399.414 695.414 421.437C701.24 442.371 706.414 463.213 713.145 483.864C717.022 495.759 720.621 507.773 725.804 519.196C729.418 527.162 732.286 544.153 741.091 547.882C746.855 550.323 749.41 548.162 748.795 542.317C748.261 537.231 745.624 534.036 743.447 529.644C742.688 528.114 740.22 523.796 740.489 522.173C740.823 520.155 741.336 520.372 743.44 519.374C747.908 517.255 752.363 515.819 757.121 514.593C755.201 517.57 751.368 521.827 751.06 525.468C750.805 528.472 752.963 533.982 755.947 535.135C758.768 536.224 762.087 533.927 764.502 532.526C767.298 530.903 769.962 530.452 773.04 529.3C769.118 534.951 762.693 539.453 765.444 547.227C768.378 555.519 777.484 548.737 783.307 547.8C781.644 554.225 774.265 561.55 768.958 565.126C765.395 567.526 761.528 569.69 757.705 571.633C756.224 572.385 754.28 572.844 752.92 573.74C752.403 574.081 751.533 575.527 751.063 575.754C744.459 578.943 735.451 579.757 728.264 581.29C720.347 582.979 713.532 583.392 705.382 583C698.639 582.677 691.168 578.534 685.534 575.055C681.249 572.411 680.624 569.179 679.29 564.51C677.08 556.773 675.1 548.986 672.991 541.222C671.171 534.529 670.325 528.098 669.092 521.307C666.481 506.914 665.279 492.294 662.478 477.926C659.696 463.655 658.765 449.198 657.995 434.611C657.625 427.584 656.48 420.417 656.132 413.528C655.849 407.924 655.945 402.285 655.975 396.522C655.998 392.471 654.562 388.422 654.66 384.357C654.746 380.762 655.076 377.525 654.696 373.894C653.887 366.157 653.254 358.513 652.646 350.764C651.459 335.662 647.968 320.758 646.576 305.72C645.974 299.216 653.112 292.979 657.948 289.192C663.102 285.155 667.238 279.486 672.91 276.309C675.011 302.392 677.655 328.341 683.226 353.931ZM597.808 632.797C592.216 635.29 586.625 637.787 581.03 640.276C576.918 642.106 571.522 645.866 567.002 645.527C570.215 641.174 572.239 636.196 575.666 631.968C579.088 627.746 581.911 623.262 585.005 618.801C589.071 623.761 593.227 628.305 597.808 632.797ZM598.998 610.908C607.458 606.446 619.479 597.966 629.395 599.566C636.538 600.718 644.628 605.947 648.941 611.706C650.964 614.407 652.987 616.927 655.302 619.574C657.424 622 658.513 621.685 656.657 624.215C655.231 626.161 651.867 627.479 649.678 628.231C649.678 623.973 651.003 619.704 645.886 620.125C643.868 620.291 641.514 620.774 639.502 621.102C637.768 621.385 636.764 622.138 635.286 622.486C633.709 622.857 631.826 622.42 630.192 622.548C627.377 622.769 625.125 623.897 622.459 624.487C616.944 625.709 612.288 627.398 606.918 629.203C604.461 625.447 602.397 620.932 599.059 617.862C595.328 614.429 593.737 613.682 598.998 610.908ZM526.42 48.4846C527.232 48.3994 528.16 47.8943 528.787 46.8414C527.689 48.6842 527.042 48.7676 526.42 48.4846ZM501.059 51.4192C502.043 51.5979 503.015 51.8164 503.829 52.1982C504.63 52.5737 505.062 53.0017 505.49 53.3771C505.29 53.2901 505.074 53.1967 504.83 53.0951C503.773 52.6535 502.421 51.8563 501.059 51.4192ZM623.487 55.0902C623.669 55.1428 623.827 55.1655 623.973 55.1736C623.774 55.1936 623.614 55.1636 623.487 55.0902ZM627.838 58.0057C627.309 57.5151 626.996 57.0345 626.835 56.5529C626.917 56.6037 627.006 56.65 627.107 56.6899C627.265 56.5339 627.422 56.3779 627.58 56.221C627.362 56.6273 627.286 57.0191 627.454 57.3709C628.266 59.0686 629.257 56.4876 630.481 57.7645C629.565 57.6521 628.446 58.0057 627.838 58.0057C626.425 59.9446 625.012 61.8844 623.6 63.8232C625.512 64.7781 626.112 63.5992 627.18 65.3395C627.232 65.4238 627.278 65.6306 627.319 65.9035C626.875 64.6348 625.716 64.8788 623.6 63.8232C625.012 61.8844 626.425 59.9446 627.838 58.0057ZM629.809 65.3776C629.871 65.49 629.938 65.5916 630.01 65.6859C629.939 65.5889 629.87 65.49 629.809 65.3776ZM627.685 73.0079C625.665 71.926 627.419 70.5639 627.502 68.9016C627.51 68.7538 627.512 68.6286 627.517 68.4926C627.531 68.8944 627.533 69.2235 627.523 69.385C627.387 71.7337 625.719 72.3876 628.754 73.0994C628.961 73.1484 629.23 73.1738 629.535 73.1856C628.759 73.2418 628.084 73.2219 627.685 73.0079ZM659.009 90.463C658.883 89.5027 663.375 87.4069 663.953 87.1494C663.243 87.4659 658.889 89.5525 659.009 90.463ZM664.118 81.9585C664.088 81.9458 664.054 81.9422 664.024 81.9286C664.031 81.8579 664.023 81.7917 664.023 81.7227C664.044 81.8098 664.072 81.8905 664.118 81.9585ZM666.509 89.7149C666.534 89.6106 666.582 89.3322 666.635 89.0003C666.714 89.4102 666.802 89.7947 666.884 90.1302C666.785 89.9996 666.668 89.8627 666.509 89.7149ZM663.02 89.6559C663.016 88.0281 663.527 88.3754 663.844 88.4244C663.555 88.8606 663.018 88.9422 663.02 89.6559ZM658.28 93.2308C658.752 93.1383 659.149 93.4094 659.516 93.7223C658.717 93.511 658.062 93.2725 658.28 93.2308ZM657.049 158.896C657.248 158.561 657.676 158.45 658.161 158.397C657.551 158.63 657.082 159.129 656.971 159.853C656.85 159.585 656.819 159.282 657.049 158.896ZM660.582 148.488C660.548 148.478 660.514 148.465 660.481 148.462C659.492 148.385 659.062 149.025 658.955 150.004C659.022 149.15 659.308 148.454 660.046 148.227C660.008 148.15 659.974 148.078 659.938 148.003C660.127 148.174 660.344 148.336 660.582 148.488ZM659.409 153.758C659.389 153.642 659.364 153.515 659.338 153.383C659.448 153.849 659.575 154.312 659.704 154.757C659.576 154.399 659.465 154.057 659.409 153.758ZM660.512 137.411C660.457 137.453 660.391 137.489 660.325 137.523C660.391 137.489 660.455 137.452 660.512 137.411ZM659.957 137.668C659.844 137.698 659.718 137.724 659.58 137.741C659.717 137.724 659.843 137.699 659.957 137.668ZM660.973 125.839C660.986 126.276 660.988 126.712 661.001 127.125C660.931 126.719 660.923 126.319 660.973 125.839ZM857.013 709.249C854.312 706.821 845.262 706.659 841.669 705.977C849.444 698.539 855.288 679.736 840.436 677.322C837.148 676.787 836.218 678.054 835.465 674.331C835.004 672.049 835.944 669.947 834.812 667.674C832.124 662.278 821.912 662.88 816.809 662.104C818.028 657.819 821.018 650.164 816.514 646.685C812.961 643.941 805.565 647.604 801.79 648.779C791.588 651.954 781.226 655.578 772.621 661.973C768.764 656.768 764.732 651.631 761.497 646.002C758.411 640.632 756.5 634.695 753.599 629.228C750.691 623.745 747.604 617.281 743.542 612.569C740.104 608.579 735.387 608.185 730.849 606.28C719.339 601.45 709.364 601.727 697.336 603.513C685.315 605.298 674.892 612.329 664.71 618.464C660.714 604.987 651.469 590.344 637.139 586.188C630.708 584.322 623.941 586.123 618.062 589.055C610.776 592.69 605.048 598.87 597.922 602.311C606.047 588.403 616.303 575.321 625.231 562.187C630.127 554.983 636.314 548.552 641.098 541.212C645.974 533.729 649.566 525.41 653.102 517.242C656.091 524.865 656.597 532.885 659.34 540.534C661.86 547.556 663.585 554.76 666.449 561.666C669.44 568.875 672.082 575.988 676.125 582.697C678.431 586.524 684.114 598.445 688.304 590.798C697.626 597.095 706.624 600.897 718.284 600.621C723.622 600.495 729.568 600.327 734.677 599.131C739.866 597.918 744.825 596.284 749.982 595.12C754.062 594.2 757.791 591.709 761.502 589.864C765.771 587.742 770 583.927 773.296 580.581C777.377 576.438 781.594 572.45 785.696 568.333C789.756 564.259 789.463 560.101 791.634 555.038C793.901 549.756 794.873 545.087 791.875 539.756C789.679 535.851 785.792 536.389 784.883 532.434C784.02 528.682 784.86 525.146 782.503 521.703C780.713 519.091 774.278 517.345 774.257 514.678C774.239 512.474 776.528 510.524 776.437 507.88C776.356 505.519 775.2 501.723 773.932 499.725C771.547 495.969 767.916 495.841 763.821 496.99C753.926 499.763 744.226 506.894 737.421 514.384C728.092 488.831 720.745 462.718 713.92 436.582C710.906 425.038 708.544 413.341 706.628 401.569C704.731 389.914 701.856 378.173 700.573 366.458C699.803 359.431 697.642 352.856 696.631 345.915C695.794 340.169 695.237 334.377 694.413 328.628C692.592 315.888 690.062 303.344 688.094 290.635C687.007 283.612 684.552 277.467 682.663 270.703C681.042 264.903 680.078 259.944 677.369 254.464C672.203 244.014 666.891 231.213 656.854 224.572C647.929 218.665 639.272 213.729 628.393 212.52C622.012 211.809 616.87 213.309 610.631 213.998C605.106 214.608 600.375 217.661 594.986 218.761C594.986 213.64 594.485 213.502 599.159 211.68C601.851 210.631 604.478 209.478 607.22 208.566C610.11 207.604 612.298 206.666 614.762 204.899C617.67 202.813 615.837 203.475 619.322 204.196C624.816 205.334 623.196 204.014 626.81 201.277C628.913 199.684 631.059 200.656 633.52 200.974C635.816 201.271 639.594 202.286 641.346 200.219C642.678 198.647 641.226 195.95 642.208 194.242C643.757 191.545 648.201 191.668 650.572 189.856C653.168 187.875 653.402 185.641 652.84 182.594C652.45 180.485 649.125 175.799 649.312 173.984C649.438 172.776 650.074 172.422 650.896 172.323C657.394 172.651 657.081 171.672 655.496 165.914C655.402 166.767 655.346 167.492 655.281 168.117C655.264 167.223 655.271 166.388 655.496 165.914C655.665 165.557 656.272 165.327 656.823 165.039C656.677 165.183 656.526 165.33 656.347 165.495C656.625 166.719 656.706 169.917 657.881 170.787C658.722 171.41 661.671 171.346 662.266 170.305C663.51 168.131 659.231 166.897 659.063 165.283C663.978 164.872 662.301 162.476 659.732 160.032C659.63 159.361 660.02 159.043 660.903 159.079C660.464 158.621 659.921 158.36 659.379 158.276C659.762 158.212 660.094 158.1 660.27 157.828C660.423 157.589 660.434 157.258 660.377 156.888C660.472 157.173 660.556 157.418 660.616 157.607C664.856 159.318 662.677 150.237 660.919 148.689C661.054 146.169 661.19 143.65 661.322 141.131C660.113 141.929 659.192 143.173 658.877 144.472C658.921 143.273 659.62 142.255 661.322 141.131C658.597 139.931 658.33 139.785 661.256 139.529C663.682 141.741 663.343 139.905 664.846 138.554C664.755 138.634 667.12 136.064 666.962 136.457C668.085 133.678 666.845 127.815 662.319 129.724C664.777 131.924 662.31 132.33 661.452 134.222C661.423 134.285 661.4 134.352 661.377 134.418C661.422 134.192 661.484 133.973 661.577 133.772C663.093 130.513 663.452 133.015 661.784 129.308C661.782 129.305 661.781 129.303 661.779 129.299C662.22 129.522 662.911 129.475 664.006 129.013C665.372 127.346 665.785 128.028 666.517 125.879C667.159 123.999 666.862 122.717 665.581 122.018C665.727 122.056 665.873 122.099 666.021 122.136C666.586 120.69 665.801 119.313 664.491 118.648C663.963 119.513 663.434 120.379 662.907 121.245C663.146 121.322 663.386 121.391 663.626 121.464C663.624 121.464 663.621 121.464 663.618 121.463C661.941 121.269 661.261 121.57 661.01 122.344C660.925 121.997 660.903 121.655 661.095 121.345C661.3 121.014 662.749 121.505 662.907 121.245C665.507 116.985 662.761 113.438 658.577 111.268C656.989 110.444 653.856 110.416 653.296 108.487C652.899 107.124 654.874 103.826 655.252 102.209C658.171 100.87 652.783 100.087 652.746 100.081C652.585 101.988 652.689 102.833 653.791 102.685C652.681 102.835 652.585 101.982 652.746 100.081C654.33 100.324 659.004 99.888 661.296 98.33C665.089 98.4379 667.041 99.0954 669.341 95.8062C667.093 94.8731 664.446 95.3755 662.428 93.9426C662.521 94.3734 662.597 94.7642 662.646 95.1252C662.47 94.5919 662.091 94.1331 661.581 93.6978C661.911 93.9807 661.74 94.0714 661.349 94.0587C661.424 93.9581 661.501 93.842 661.581 93.6978C661.717 92.1017 662.891 92.7519 664.079 92.8517C664.048 92.3384 663.844 91.9067 663.625 91.4787C663.843 91.8895 664.046 92.3103 664.079 92.8517C664.832 92.3729 665.585 91.894 666.338 91.4143C666.747 91.2955 666.992 91.1296 667.089 90.921C667.09 90.9246 667.091 90.9292 667.091 90.9328C670.69 92.0065 669.595 84.3835 667.939 84.4225C667.495 84.4333 667.173 84.5966 666.936 84.855C666.987 84.1522 667.108 83.4086 667.396 82.3675C667.565 81.9195 667.732 81.4715 667.902 81.0236C666.993 81.0816 664.059 79.3286 664.005 81.4199C663.95 81.0426 663.801 80.6907 663.544 80.3706C663.806 78.0572 662.445 78.254 660.335 77.6074C659.551 77.3671 658.686 75.8663 657.804 76.4965C656.477 77.4433 657.276 78.3347 658.128 79.0094C658.003 79.7957 657.627 80.4241 656.999 80.8939C656.904 80.8041 656.812 80.7352 656.721 80.6653C657.308 80.3216 657.803 79.7748 658.128 79.0094C655.415 76.8629 654.27 78.2676 652.182 79.9943C653.013 80.6862 653.977 81.0589 654.9 81.097C654.853 81.1986 654.806 81.3011 654.765 81.4226C653.718 81.292 652.857 80.8159 652.182 79.9943C654.399 78.1597 654.2 77.0352 651.504 75.947C650.592 75.5797 650.015 76.3977 648.888 75.9651C648.329 75.7502 647.925 74.7744 647.379 74.4516C643.299 72.0366 638.398 73.4114 634.053 72.8392C634.597 72.7694 635.084 72.7013 635.453 72.6524C635.023 71.1542 633.857 70.5058 632.629 70.0497C632.631 69.1963 632.632 68.3421 632.631 67.4887C632.458 67.4497 632.291 67.4316 632.129 67.4271C632.413 67.2022 632.582 66.8965 632.542 66.376C631.493 66.7551 630.605 66.4758 630.031 65.7167C631.172 67.174 633.394 66.4114 634.073 64.5423C634.784 62.5835 633.26 61.2677 631.934 59.814C631.966 58.4174 631.372 57.915 630.605 57.7808C631.988 55.0639 632.299 56.4115 630.814 53.0135C630.691 50.7237 628.748 51.5553 627.438 53.0262C627.576 52.6888 627.718 52.3424 627.852 51.9815C626.821 51.9117 625.791 51.8418 624.76 51.7702C625.023 52.6063 625.6 54.0954 624.841 54.8054C625.346 54.079 624.987 52.492 624.76 51.7702C623.498 51.0665 622.236 50.3627 620.974 49.6572C621.08 49.883 621.371 50.7327 621.73 51.6949C620.759 50.3428 619.967 49.5049 618.644 48.1128C617.998 47.4336 615.47 44.1734 614.769 43.9703C610.483 42.7279 607.241 51.11 602.012 49.9628C598.929 49.2863 600.368 48.4883 597.455 49.0541C595.86 46.982 585.449 50.2403 585.05 52.2118C585.245 52.1592 585.394 52.1375 585.515 52.1338C584.341 52.5546 583.32 53.2021 582.184 53.6401C579.334 54.7392 581.03 55.0258 577.794 53.1758C576.691 52.5446 576.283 52.7423 575.853 52.6843C577.247 52.0586 577.918 47.7274 577.938 46.183C577.988 42.493 577.5 43.1405 578.94 40.4943C577.608 40.4735 576.671 40.3601 575.971 40.6766C576.171 40.0491 576.315 39.4333 576.311 38.8375C577.031 36.8859 576.397 34.5871 574.168 34.0439C570.796 33.2213 570.135 38.0612 572.578 38.8538C570.241 38.0957 571.179 35.0341 567.997 34.6197C569.164 34.5599 569.889 34.7802 570.976 36.1169C571.337 35.3915 571.695 34.6669 572.056 33.9414C569.523 33.6766 568.352 33.4617 566.307 34.6515C564.305 35.0088 562.894 36.4588 561.383 37.8744C557.268 41.7295 553.573 45.492 549.785 49.6744C547.838 45.6761 545.689 42.7651 542.531 47.2395C539.679 51.2778 537.371 56.8595 535.889 61.5552C532.927 60.1958 534.176 59.7523 532.934 57.5505C534.225 59.6952 532.912 60.1885 535.889 61.5552C536.184 60.6184 536.481 59.6807 536.777 58.7439C534.184 55.7885 534.293 52.8521 531.485 49.7007C531.174 50.711 532.069 52.1502 532.225 53.0606C532.4 54.07 531.281 54.771 531.535 55.8565C532.584 55.4729 532.827 55.7041 532.861 56.124C532.825 55.705 532.578 55.4756 531.535 55.8565C531.119 54.0836 532.153 53.1413 531.576 51.1617C531.342 50.3618 531.004 49.7769 530.595 49.211C532.382 46.2229 526.603 44.1526 525.258 45.9309C525.089 46.1549 524.975 46.3635 524.885 46.5648C522.629 45.5501 521.932 47.7093 520.879 49.3307C520.63 49.8377 520.379 50.3455 520.128 50.8534C518.8 51.9443 517.568 54.2269 516.568 55.7204C514.429 58.9135 513.532 63.5865 510.914 66.2472C511.002 64.5333 511.937 60.7336 508.859 62.2661C509.875 61.7601 510.021 61.1453 509.798 60.4325C509.989 60.5404 510.196 60.6383 510.437 60.7181C510.869 60.7608 511.304 60.8025 511.737 60.8442C511.682 58.4174 510.091 56.8223 508.212 55.5318C508.212 56.1657 508.192 56.8177 508.233 57.4426C508.223 57.4199 508.212 57.3981 508.202 57.3755C507.377 55.3994 507.727 54.8172 507.012 54.2114C507.293 54.2785 507.614 54.3266 508.009 54.3457C505.71 50.458 502.653 49.8368 498.427 50.9322C498.715 51.0003 499.017 51.0583 499.324 51.1154C498.846 51.1163 498.382 51.2016 497.949 51.4129C496.307 52.2118 493.88 56.8041 492.741 58.3966C488.733 64.001 486.866 70.8677 484.768 77.3453C484.179 79.1681 483.284 83.4403 481.005 84.0516C478.357 84.7625 475.551 80.4477 473.219 79.0058C465.76 74.3908 462.05 82.6768 460.901 89.2506C459.187 92.1588 459.582 94.4006 462.054 95.7781C461.362 94.7778 461.043 93.7123 460.913 92.6132C461.24 94.4813 462.799 95.1288 463.08 95.9286C463.234 96.3676 463.448 99.0301 463.444 99.5651C464.718 100.516 464.814 101.219 463.731 101.674C463.069 102.126 462.448 102.632 461.87 103.191C460.082 105.075 460.1 107.688 458.464 109.521C456.616 111.594 454.918 110.678 454.045 114.086C452.55 119.924 456.233 128.74 462.862 129.298C462.075 131.597 461.057 133.929 460.469 136.286C459.689 139.423 459.744 139.741 461.222 142.741C450.198 141.103 451.06 152.773 457.343 158.505C458.832 159.864 460.462 160.71 462.384 161.312C463.774 161.748 467.971 161.505 468.971 162.824C471.077 165.604 466.375 169.219 465.959 172.321C465.916 172.639 465.899 173.184 465.913 173.817C464.177 175.941 464.262 176.117 466.743 178.104C468.101 179.855 472.3 179.436 473.577 181.11C475.541 183.686 471.161 187.833 473.357 190.843C475.102 193.235 476.923 191.744 479.718 192.758C481.071 193.376 482.424 193.995 483.774 194.617C484.407 194.177 485.1 193.901 485.852 193.789C487.431 194.584 485.924 195.983 487.914 196.451C488.948 196.777 491.336 198.016 492.381 197.374C490.9 198.285 489.905 200.537 489.055 203.013C488.246 204.337 487.498 205.794 487.796 206.888C487.297 208.404 486.787 209.787 486.178 210.75C489.618 211.274 489.213 214.515 491.594 216.294C494.811 219.048 495.347 216.492 494.587 215.149C494.909 215.312 495.239 215.524 495.581 215.766C495.645 215.811 494.954 217.447 495.633 217.829C496.583 218.365 496.582 217.827 497.57 217.816C498.5 217.806 499.849 216.41 500.985 216.293C501.59 216.231 503.377 217.058 503.748 216.813C504.778 216.13 504.698 215.381 504.297 214.475L504.758 215.395C505.867 218.291 506.424 217.639 508.106 216.809C507.651 217.033 509.424 215.711 509.788 215.817C508.959 213.522 505.676 213.763 503.653 213.189C504.935 213.552 507.016 213.566 508.195 214.074C510.168 214.924 509.544 215.788 511.881 216.053C512.865 216.164 516.878 215.074 517.585 214.36C517.652 214.292 517.7 214.209 517.736 214.117C518.1 213.536 518.464 212.954 518.827 212.372C520.31 212.544 518.704 214.824 521.032 213.917C522.77 213.238 521.924 212.294 521.371 211.264C521.19 210.926 520.986 210.686 520.771 210.513C523.174 211.088 526.03 214.321 529.31 213.416C531.16 212.905 531.263 211.643 532.619 210.462C534.431 208.885 534.992 209.128 537.186 208.365C538.515 207.903 539.93 206.883 541.268 206.645C543.446 206.258 542.845 206.498 544.649 207.416C545.728 207.964 546.342 208.994 547.705 209.193C548.949 209.375 550.903 207.944 551.91 208.337C554.65 209.408 553.953 213.254 554.108 215.79C540.237 211.375 524.024 218.431 513.815 228.121C511.047 230.748 509.235 233.863 506.776 236.72C504.107 239.82 501.59 241.228 501.215 245.644C500.891 249.452 502.609 251.738 501.253 255.397C499.952 258.903 498.534 262.041 497.583 265.697C493.039 283.155 492.899 301.284 489.532 318.983C486.416 335.36 481.968 349.949 474.637 364.961C471.239 371.92 468.389 376.181 460.935 379.116C454.905 381.49 450.491 378.378 447.544 372.964C439.613 358.394 438.485 343.41 438.581 327.158C438.627 319.351 439.518 311.543 440.27 303.781C441.05 295.736 440.465 288.22 439.906 280.187C438.783 264.082 435.108 250.268 429.579 235.121C426.957 227.937 424.746 220.933 418.432 216.259C414.895 213.642 411.343 210.368 407.196 208.105C403.88 206.294 401.905 204.658 398.122 203.847C395.634 203.314 393.367 202.491 390.965 201.717C385.297 199.894 378.74 199.33 372.794 199.35C358.91 199.397 343.673 204.071 331.175 210.065C324.953 213.049 318.195 217.493 314.097 223.154C312.405 225.491 311.254 228.082 310.105 230.711C308.73 233.853 309.162 234.428 306.25 234.319C304.426 234.25 302.386 232.562 300.297 232.472C298.01 232.374 296.336 233.17 294.208 233.761C291.505 234.51 288.965 235.181 286.563 236.734C280.733 240.498 275.802 246.498 271.347 251.732C263.191 261.313 255.812 272.05 248.182 281.809C240.668 291.417 231.54 299.944 219.868 304.3C215.416 305.962 210.486 306.298 205.94 307.642C203.946 308.231 201.53 309.796 199.44 309.769C196.156 309.727 196.408 308.119 195.271 305.512C193.92 302.416 191.964 300.006 189.521 297.693C178.681 287.43 165.2 302.637 166.036 314.35C166.526 321.195 171.655 325.709 171.475 332.426C171.305 338.71 171.679 345.085 173.921 351.049C176.437 357.738 182.624 364.676 188.08 369.226C193.134 373.442 199.465 374.337 205.831 375.041C208.75 375.363 211.778 376.231 214.6 376.18C217.017 376.135 219.216 375.157 221.685 375.257C225.872 375.425 228.116 375.398 232.04 373.912C234.95 372.81 237.576 372.198 240.745 372.27C240.745 378.948 241.168 385.479 241.742 392.134C241.817 393.013 242.425 395.296 242.021 396.079C241.522 397.046 240.93 396.408 240.309 397.104C238.827 398.762 237.752 399.577 236.642 401.733C233.598 407.645 232.666 414.258 233.852 420.85C234.783 426.018 237.822 428.147 237.104 433.638C236.259 440.089 234.688 446.674 234.384 453.167C234.239 456.264 234.203 458.603 233.547 461.608C233.168 463.351 231.894 466.493 231.996 468.256C232.061 469.345 233.215 469.827 233.217 470.825C233.22 471.695 232.214 471.579 232.145 472.325C231.935 474.574 231.812 476.611 231.86 478.872C231.924 481.931 231.625 484.971 231.739 488.03C231.827 490.359 231.284 495.875 233.899 494.966C233.202 496.612 233.016 498.198 232.947 499.778C232.912 499.625 232.897 499.468 232.91 499.308C233.07 497.485 233.124 496.796 233.899 494.966L232.407 495.485C231.494 497.84 232.615 500.147 232.866 502.491C232.857 502.725 232.849 502.959 232.835 503.196C232.624 506.6 232.881 509.933 233.135 513.329C233.716 521.084 233.989 529.728 236.086 536.696C238.385 544.334 237.65 553.936 238.537 562.348C239.551 571.976 241.196 581.449 242.421 591.041C243.516 599.606 244.044 608.899 245.921 617.24C247.46 624.072 248.763 630.725 249.588 637.905C250.731 647.862 254.365 655.447 258.364 664.494C260.055 668.323 260.171 668.262 257.067 671.059C255.766 672.23 254.664 673.601 253.339 674.745C250.686 677.039 247.787 678.374 244.303 678.787C235.727 679.804 227.062 682.852 222.244 690.246C217.587 697.394 220.604 705.77 224.089 713.052C219.49 713.443 207.051 713.161 209.961 721.54C211.95 727.268 222.557 725.35 227.242 725.412C234.087 725.504 240.981 725.168 247.767 725.075C250.855 725.032 251.171 724.712 254.179 725.89C257.013 726.999 259.177 727.122 262.244 726.919C265.51 726.705 268.774 727.186 271.94 726.716C275.93 726.125 278.412 725.626 282.42 726.335C285.317 726.848 287.64 726.596 290.531 726.215C293.735 725.79 296.77 726.046 300.076 725.957C307.798 725.75 315.461 725.895 323.188 725.982C330.699 726.065 338.216 725.039 345.676 725.376C358.685 725.963 371.925 725.428 384.994 725.732C391.022 725.873 395.679 729.381 401.722 729.02C407.862 728.653 414.087 728.597 420.181 727.739C430.673 726.261 440.783 724.17 451.442 723.625C458.18 723.281 464.101 726.181 470.44 728.003C472.737 728.662 474.804 728.353 476.951 728.843C478.977 729.304 481.055 730.627 483.195 731.176C488.261 732.475 493.103 732.969 497.555 733.089C498.132 734.155 498.797 734.286 499.551 733.48C499.857 733.306 500.163 733.132 500.469 732.959C501.889 732.77 502.901 732.13 504.392 732.036C506.688 731.889 509.038 732.202 511.169 731.997C515.631 731.567 519.82 731.285 524.755 731.792C527.681 732.093 530.243 731.668 533.124 731.721C533.091 731.72 537.076 732.498 537.166 732.463C537.52 732.326 538.077 731.342 538.307 731.299C538.224 730.356 538.508 729.931 539.159 730.023C539.681 729.909 540.025 730.182 540.192 730.841C540.035 730.86 541.433 731.566 541.532 731.581C541.613 731.594 545.213 731.168 545.467 731.073C546.499 730.686 546.939 729.562 547.763 729.393C548.738 729.194 549.321 730.27 550.166 730.225C552.031 730.124 551.811 729.293 553.243 729.035C558.274 728.128 564.434 729.307 569.63 729.315C574.809 729.324 579.958 728.85 584.944 728.631C591.075 728.361 597.079 729.525 603.256 728.699C609.131 727.912 615.008 727.57 620.927 727.321C633.296 726.8 645.99 727.351 658.244 725.896C671.005 724.383 683.979 725.895 696.759 725.668C710.234 725.428 723.781 725.305 737.252 724.753C750.658 724.203 764.011 722.607 777.365 722.286C780.763 722.205 784.099 721.395 787.483 721.149C790.582 720.924 793.629 721.417 796.752 721.144C802.442 720.646 807.616 721.027 813.334 720.94C819.728 720.842 825.939 719.867 832.3 719.475C838.728 719.079 845.096 719.986 851.473 718.718C854.959 718.024 861.461 713.249 857.013 709.249Z" fill="black"/>
<path fill-rule="evenodd" clip-rule="evenodd" d="M604.56 140.444C604.551 140.444 604.543 140.445 604.536 140.444C604.503 140.481 604.47 140.521 604.439 140.556L604.56 140.444Z" fill="black"/>
<path fill-rule="evenodd" clip-rule="evenodd" d="M657.817 111C658.625 108.192 656.579 106.181 655.209 104C654.402 108.948 651.924 108.734 657.817 111Z" fill="black"/>
<path fill-rule="evenodd" clip-rule="evenodd" d="M509.463 216.417C509.484 216.474 509.511 216.524 509.528 216.584C509.551 216.485 509.524 216.434 509.463 216.417Z" fill="black"/>
<path fill-rule="evenodd" clip-rule="evenodd" d="M487.139 212.711C487.323 213.124 487.725 215.984 488.016 215.998C490.607 216.121 487.449 211.283 485.793 211C483.398 212.546 487.196 212.838 487.139 212.711Z" fill="black"/>
<path fill-rule="evenodd" clip-rule="evenodd" d="M487 196C486.829 193.815 486.094 193.538 484 194.6C484.626 195.974 485.371 195.777 487 196Z" fill="black"/>
<path fill-rule="evenodd" clip-rule="evenodd" d="M458 142.501C459 142.668 460.001 142.834 461 143C460.413 141.668 459.825 140.333 459.238 139C458.825 140.168 458.413 141.334 458 142.501Z" fill="black"/>
<path fill-rule="evenodd" clip-rule="evenodd" d="M478.526 581.494C478.527 581.492 478.527 581.49 478.529 581.488C478.456 581.516 478.445 581.522 478.526 581.494Z" fill="black"/>
<path fill-rule="evenodd" clip-rule="evenodd" d="M274.512 309.148C276.63 305.607 280.646 301.232 285.218 302.704C289.489 304.08 290.671 309.679 292.512 313.201C296.092 320.048 297.207 312.696 298 308.54C297.353 300.217 294.115 286.67 283.161 288.105C274.829 289.199 267.634 302.583 269.221 310.497C270.554 317.149 272.804 312.005 274.512 309.148Z" fill="black"/>
<path fill-rule="evenodd" clip-rule="evenodd" d="M590.267 152.287C586.176 150.827 586.18 155.247 586.022 158.57C585.877 161.623 586.35 168.785 590.204 169.875C594.043 170.963 594.405 164.638 595 162.081C594.105 159.046 593.61 153.48 590.267 152.287Z" fill="black"/>
<path fill-rule="evenodd" clip-rule="evenodd" d="M595 145.654C591.997 143 589.992 142.187 586.157 143.901C584.183 144.783 581.363 146.702 581.054 149.122C580.089 156.654 592.354 147.199 595 145.654Z" fill="black"/>
<path fill-rule="evenodd" clip-rule="evenodd" d="M595.626 190.773C602.624 192.581 603.071 183.016 595.289 183C590.082 182.99 591.718 189.763 595.626 190.773Z" fill="black"/>
<path fill-rule="evenodd" clip-rule="evenodd" d="M542.132 161.039C539.52 161.42 538.597 163.059 539.157 165.675C539.804 168.693 541.44 168.718 544.369 169C551.428 169.022 546.821 160.354 542.132 161.039Z" fill="black"/>
<path fill-rule="evenodd" clip-rule="evenodd" d="M604.095 144.841C604.741 146.633 608.249 147.442 610.083 146.759C612.264 145.946 612.717 143.971 610.749 142.157C609.063 140.604 606.739 141.014 604.629 141.158C604.699 141.836 603.693 143.727 604.095 144.841Z" fill="black"/>
<path fill-rule="evenodd" clip-rule="evenodd" d="M384.561 349C387.898 348.995 384.749 343.351 382 343C382.058 344.746 381.943 349.005 384.561 349Z" fill="black"/>
</g>
<defs>
<clipPath id="clip0_1851_39">
<rect width="1024" height="768" fill="white"/>
</clipPath>
</defs>
</svg>
